#Comment line ignore any data following # character 
#Hierarchical Translation and Rotation (.htr) file 
[Header]	
#Header keywords are followed by a single value 
FileType HTR		#Single word string
DataType HTRS		#Translation followed by rotation and scale data
FileVersion 1		#integer
NumSegments 84		#integer
NumFrames 2		#integer
DataFrameRate 30		#integer, data frame rate in this file
EulerRotationOrder ZYX
CalibrationUnits mm
RotationUnits Degrees
GlobalAxisofGravity Y
BoneLengthAxis Y
ScaleFactor 1.00
[SegmentNames&Hierarchy]
#CHILD	PARENT
MASTER GLOBAL
root MASTER
chest root
L_mid_tent01 root
R_mid_tent01 root
spine01 root
Bip01_Neck chest
L_humerus chest
R_humerus chest
weapon_bone chest
Bip01_Head Bip01_Neck
eye_left_bone Bip01_Head
eye_right_bone Bip01_Head
L_forearm L_humerus
L_front_hand L_forearm
L_weapon_bone L_forearm
L_front_hand01_01 L_front_hand
L_front_hand02_01 L_front_hand
L_front_hand03_01 L_front_hand
L_front_hand01_02 L_front_hand01_01
L_front_hand02_02 L_front_hand02_01
L_front_hand03_02 L_front_hand03_01
R_forearm R_humerus
R_front_hand R_forearm
R_weapon_bone R_forearm
R_front_hand01_01 R_front_hand
R_front_hand02_01 R_front_hand
R_front_hand03_01 R_front_hand
R_front_hand01_02 R_front_hand01_01
R_front_hand02_02 R_front_hand02_01
R_front_hand03_02 R_front_hand03_01
null_rope01_connect L_mid_tent01
Rope1_Seg01 null_rope01_connect
Rope1_Seg02 Rope1_Seg01
Rope1_Seg03 Rope1_Seg02
Rope1_Seg04 Rope1_Seg03
Rope1_Seg05 Rope1_Seg04
Rope1_Seg06 Rope1_Seg05
Rope1_Seg07 Rope1_Seg06
Rope1_Seg09 Rope1_Seg07
L_mid_hand01 Rope1_Seg09
L_mid_hand02 Rope1_Seg09
L_mid_hand03 Rope1_Seg09
null_rope02_connect R_mid_tent01
Rope2_Seg01 null_rope02_connect
Rope2_Seg02 Rope2_Seg01
Rope2_Seg03 Rope2_Seg02
Rope2_Seg04 Rope2_Seg03
Rope2_Seg05 Rope2_Seg04
Rope2_Seg06 Rope2_Seg05
Rope2_Seg07 Rope2_Seg06
Rope2_Seg09 Rope2_Seg07
R_mid_hand01 Rope2_Seg09
R_mid_hand02 Rope2_Seg09
R_mid_hand03 Rope2_Seg09
spine02 spine01
spine03 spine02
pelvis spine03
null_rope03_connect pelvis
null_rope04_connect pelvis
Rope3_Seg01 null_rope03_connect
Rope3_Seg02 Rope3_Seg01
Rope3_Seg03 Rope3_Seg02
Rope3_Seg04 Rope3_Seg03
Rope3_Seg05 Rope3_Seg04
Rope3_Seg06 Rope3_Seg05
Rope3_Seg07 Rope3_Seg06
Rope3_Seg08 Rope3_Seg07
Rope3_Seg09 Rope3_Seg08
R_rear_hand01 Rope3_Seg09
R_rear_hand02 Rope3_Seg09
R_rear_hand03 Rope3_Seg09
Rope4_Seg01 null_rope04_connect
Rope4_Seg02 Rope4_Seg01
Rope4_Seg03 Rope4_Seg02
Rope4_Seg04 Rope4_Seg03
Rope4_Seg05 Rope4_Seg04
Rope4_Seg06 Rope4_Seg05
Rope4_Seg07 Rope4_Seg06
Rope4_Seg08 Rope4_Seg07
Rope4_Seg09 Rope4_Seg08
L_rear_hand01 Rope4_Seg09
L_rear_hand02 Rope4_Seg09
L_rear_hand03 Rope4_Seg09
[BasePosition]
#SegmentName Tx, Ty, Tz, Rx, Ry, Rz, BoneLength
MASTER 0.000000 0.000000 0.000000 -90.000000 0.000000 0.000000 10.000000 
root 0.000000 0.000000 0.000000 0.000000 0.000000 0.000000 10.000000 
chest 0.000000 0.000000 0.000000 0.000000 0.000000 0.000000 10.000000 
L_mid_tent01 0.000000 0.000000 0.000000 0.000000 0.000000 0.000000 10.000000 
R_mid_tent01 0.000000 0.000000 0.000000 0.000000 0.000000 0.000000 10.000000 
spine01 0.000000 0.000000 0.000000 0.000000 0.000000 0.000000 10.000000 
Bip01_Neck 0.000000 0.000000 0.000000 0.000000 0.000000 0.000000 10.000000 
L_humerus 0.000000 0.000000 0.000000 0.000000 0.000000 0.000000 10.000000 
R_humerus 0.000000 0.000000 0.000000 0.000000 0.000000 0.000000 10.000000 
weapon_bone 0.000000 0.000000 0.000000 0.000000 0.000000 0.000000 10.000000 
Bip01_Head 0.000000 0.000000 0.000000 0.000000 0.000000 0.000000 10.000000 
eye_left_bone 0.000000 0.000000 0.000000 0.000000 0.000000 0.000000 10.000000 
eye_right_bone 0.000000 0.000000 0.000000 0.000000 0.000000 0.000000 10.000000 
L_forearm 0.000000 0.000000 0.000000 0.000000 0.000000 0.000000 10.000000 
L_front_hand 0.000000 0.000000 0.000000 0.000000 0.000000 0.000000 10.000000 
L_weapon_bone 0.000000 0.000000 0.000000 0.000000 0.000000 0.000000 10.000000 
L_front_hand01_01 0.000000 0.000000 0.000000 0.000000 0.000000 0.000000 10.000000 
L_front_hand02_01 0.000000 0.000000 0.000000 0.000000 0.000000 0.000000 10.000000 
L_front_hand03_01 0.000000 0.000000 0.000000 0.000000 0.000000 0.000000 10.000000 
L_front_hand01_02 0.000000 0.000000 0.000000 0.000000 0.000000 0.000000 10.000000 
L_front_hand02_02 0.000000 0.000000 0.000000 0.000000 0.000000 0.000000 10.000000 
L_front_hand03_02 0.000000 0.000000 0.000000 0.000000 0.000000 0.000000 10.000000 
R_forearm 0.000000 0.000000 0.000000 0.000000 0.000000 0.000000 10.000000 
R_front_hand 0.000000 0.000000 0.000000 0.000000 0.000000 0.000000 10.000000 
R_weapon_bone 0.000000 0.000000 0.000000 0.000000 0.000000 0.000000 10.000000 
R_front_hand01_01 0.000000 0.000000 0.000000 0.000000 0.000000 0.000000 10.000000 
R_front_hand02_01 0.000000 0.000000 0.000000 0.000000 0.000000 0.000000 10.000000 
R_front_hand03_01 0.000000 0.000000 0.000000 0.000000 0.000000 0.000000 10.000000 
R_front_hand01_02 0.000000 0.000000 0.000000 0.000000 0.000000 0.000000 10.000000 
R_front_hand02_02 0.000000 0.000000 0.000000 0.000000 0.000000 0.000000 10.000000 
R_front_hand03_02 0.000000 0.000000 0.000000 0.000000 0.000000 0.000000 10.000000 
null_rope01_connect 0.000000 0.000000 0.000000 0.000000 0.000000 0.000000 10.000000 
Rope1_Seg01 0.000000 0.000000 0.000000 0.000000 0.000000 0.000000 10.000000 
Rope1_Seg02 0.000000 0.000000 0.000000 0.000000 0.000000 0.000000 10.000000 
Rope1_Seg03 0.000000 0.000000 0.000000 0.000000 0.000000 0.000000 10.000000 
Rope1_Seg04 0.000000 0.000000 0.000000 0.000000 0.000000 0.000000 10.000000 
Rope1_Seg05 0.000000 0.000000 0.000000 0.000000 0.000000 0.000000 10.000000 
Rope1_Seg06 0.000000 0.000000 0.000000 0.000000 0.000000 0.000000 10.000000 
Rope1_Seg07 0.000000 0.000000 0.000000 0.000000 0.000000 0.000000 10.000000 
Rope1_Seg09 0.000000 0.000000 0.000000 0.000000 0.000000 0.000000 10.000000 
L_mid_hand01 0.000000 0.000000 0.000000 0.000000 0.000000 0.000000 10.000000 
L_mid_hand02 0.000000 0.000000 0.000000 0.000000 0.000000 0.000000 10.000000 
L_mid_hand03 0.000000 0.000000 0.000000 0.000000 0.000000 0.000000 10.000000 
null_rope02_connect 0.000000 0.000000 0.000000 0.000000 0.000000 0.000000 10.000000 
Rope2_Seg01 0.000000 0.000000 0.000000 0.000000 0.000000 0.000000 10.000000 
Rope2_Seg02 0.000000 0.000000 0.000000 0.000000 0.000000 0.000000 10.000000 
Rope2_Seg03 0.000000 0.000000 0.000000 0.000000 0.000000 0.000000 10.000000 
Rope2_Seg04 0.000000 0.000000 0.000000 0.000000 0.000000 0.000000 10.000000 
Rope2_Seg05 0.000000 0.000000 0.000000 0.000000 0.000000 0.000000 10.000000 
Rope2_Seg06 0.000000 0.000000 0.000000 0.000000 0.000000 0.000000 10.000000 
Rope2_Seg07 0.000000 0.000000 0.000000 0.000000 0.000000 0.000000 10.000000 
Rope2_Seg09 0.000000 0.000000 0.000000 0.000000 0.000000 0.000000 10.000000 
R_mid_hand01 0.000000 0.000000 0.000000 0.000000 0.000000 0.000000 10.000000 
R_mid_hand02 0.000000 0.000000 0.000000 0.000000 0.000000 0.000000 10.000000 
R_mid_hand03 0.000000 0.000000 0.000000 0.000000 0.000000 0.000000 10.000000 
spine02 0.000000 0.000000 0.000000 0.000000 0.000000 0.000000 10.000000 
spine03 0.000000 0.000000 0.000000 0.000000 0.000000 0.000000 10.000000 
pelvis 0.000000 0.000000 0.000000 0.000000 0.000000 0.000000 10.000000 
null_rope03_connect 0.000000 0.000000 0.000000 0.000000 0.000000 0.000000 10.000000 
null_rope04_connect 0.000000 0.000000 0.000000 0.000000 0.000000 0.000000 10.000000 
Rope3_Seg01 0.000000 0.000000 0.000000 0.000000 0.000000 0.000000 10.000000 
Rope3_Seg02 0.000000 0.000000 0.000000 0.000000 0.000000 0.000000 10.000000 
Rope3_Seg03 0.000000 0.000000 0.000000 0.000000 0.000000 0.000000 10.000000 
Rope3_Seg04 0.000000 0.000000 0.000000 0.000000 0.000000 0.000000 10.000000 
Rope3_Seg05 0.000000 0.000000 0.000000 0.000000 0.000000 0.000000 10.000000 
Rope3_Seg06 0.000000 0.000000 0.000000 0.000000 0.000000 0.000000 10.000000 
Rope3_Seg07 0.000000 0.000000 0.000000 0.000000 0.000000 0.000000 10.000000 
Rope3_Seg08 0.000000 0.000000 0.000000 0.000000 0.000000 0.000000 10.000000 
Rope3_Seg09 0.000000 0.000000 0.000000 0.000000 0.000000 0.000000 10.000000 
R_rear_hand01 0.000000 0.000000 0.000000 0.000000 0.000000 0.000000 10.000000 
R_rear_hand02 0.000000 0.000000 0.000000 0.000000 0.000000 0.000000 10.000000 
R_rear_hand03 0.000000 0.000000 0.000000 0.000000 0.000000 0.000000 10.000000 
Rope4_Seg01 0.000000 0.000000 0.000000 0.000000 0.000000 0.000000 10.000000 
Rope4_Seg02 0.000000 0.000000 0.000000 0.000000 0.000000 0.000000 10.000000 
Rope4_Seg03 0.000000 0.000000 0.000000 0.000000 0.000000 0.000000 10.000000 
Rope4_Seg04 0.000000 0.000000 0.000000 0.000000 0.000000 0.000000 10.000000 
Rope4_Seg05 0.000000 0.000000 0.000000 0.000000 0.000000 0.000000 10.000000 
Rope4_Seg06 0.000000 0.000000 0.000000 0.000000 0.000000 0.000000 10.000000 
Rope4_Seg07 0.000000 0.000000 0.000000 0.000000 0.000000 0.000000 10.000000 
Rope4_Seg08 0.000000 0.000000 0.000000 0.000000 0.000000 0.000000 10.000000 
Rope4_Seg09 0.000000 0.000000 0.000000 0.000000 0.000000 0.000000 10.000000 
L_rear_hand01 0.000000 0.000000 0.000000 0.000000 0.000000 0.000000 10.000000 
L_rear_hand02 0.000000 0.000000 0.000000 0.000000 0.000000 0.000000 10.000000 
L_rear_hand03 0.000000 0.000000 0.000000 0.000000 0.000000 0.000000 10.000000 
#Beginning of Data. Separated by tabs
#Fr	Tx	Ty	Tz	Rx	Ry	Rz	SF
[MASTER]
16 781.303894 -2927.570068 1638.882690 0.000000 -0.002347 -90.000000 3444.856689
17 489.747406 -3083.165771 1519.485718 0.000000 -0.002347 -90.000000 3471.973877
[root]
16 -122.419495 47.145271 523.782166 -169.655197 -6.955759 178.352997 539.960144
17 -128.775040 104.534592 572.900818 -171.172089 -6.023866 178.589142 596.427551
[chest]
16 -84.512650 -34.090519 0.000000 -60.925816 -21.553719 -149.339676 91.129311
17 -84.512650 -34.090519 0.000000 -66.139008 -22.508198 -149.239822 91.129311
[L_mid_tent01]
16 27.299213 22.179203 -249.918716 -1.714019 24.055761 67.405937 252.381714
17 27.299219 22.179207 -249.918716 -1.677393 24.395235 67.420387 252.381714
[R_mid_tent01]
16 23.228794 24.509907 226.238495 167.843872 -1.257173 60.220882 228.744751
17 23.228794 24.509907 226.238495 166.804337 3.747653 60.715103 228.744751
[spine01]
16 -0.361383 -0.195265 0.000000 0.001957 0.001297 22.934290 0.410763
17 -0.361383 -0.195265 0.000000 0.001957 0.001297 22.933033 0.410763
[Bip01_Neck]
16 165.484543 71.581718 0.000119 176.643677 -1.657967 43.431911 180.302734
17 165.484543 71.581718 0.000119 176.643677 -1.657967 43.431911 180.302734
[L_humerus]
16 -13.983130 -135.272980 -120.471481 171.322388 24.792747 -93.028343 181.680161
17 -13.983130 -135.272980 -120.471481 172.179993 1.425485 -89.778122 181.680161
[R_humerus]
16 -13.983309 -135.273102 125.287651 -176.921463 -5.896568 -85.951187 184.909012
17 -13.983309 -135.273102 125.287651 -177.014343 2.678886 -85.399712 184.909012
[weapon_bone]
16 235.964890 -300.705902 0.000000 0.000000 -89.951546 -128.212341 382.234833
17 235.964890 -300.705902 0.000000 0.000000 -89.951546 -128.212341 382.234833
[Bip01_Head]
16 213.326859 186.042313 7.559120 18.223383 6.152124 -43.833614 283.155823
17 213.329132 186.036011 7.640702 18.223381 6.152122 -43.833611 283.155609
[eye_left_bone]
16 -24.626970 125.451866 -64.772606 0.000000 -90.000000 -99.840431 143.318359
17 -24.626970 125.451866 -64.772606 0.000000 -90.000000 -99.840431 143.318359
[eye_right_bone]
16 -24.626970 125.451866 64.327362 0.000000 -89.965736 80.156380 143.117676
17 -24.626970 125.451866 64.327362 0.000000 -89.965736 80.156380 143.117676
[L_forearm]
16 322.776093 0.000000 -0.000119 0.000432 -0.002307 -111.227692 322.776093
17 322.776093 0.000000 -0.000119 0.000433 -0.002307 -111.239677 322.776093
[L_front_hand]
16 241.149185 -0.042021 -3.300071 -178.667953 -1.835447 -27.422350 241.171753
17 241.149185 -0.042021 -3.300071 -178.667953 -1.835447 -27.422350 241.171753
[L_weapon_bone]
16 156.183838 0.000000 0.000000 0.000014 0.000007 0.000001 156.183838
17 156.183838 0.000000 0.000000 0.000014 0.000007 0.000001 156.183838
[L_front_hand01_01]
16 86.095154 20.947098 -0.655860 -0.307662 -0.512638 68.898659 88.609184
17 86.095154 20.947098 -0.655860 -0.320916 -0.506937 70.186226 88.609184
[L_front_hand02_01]
16 86.935165 -11.437475 24.513514 145.311661 -56.611855 -50.692310 91.046425
17 86.935165 -11.437475 24.513514 146.956512 -57.330299 -52.653660 91.046425
[L_front_hand03_01]
16 86.637497 -14.123976 -20.424902 -145.445221 54.832184 -52.559975 90.126129
17 86.637497 -14.123976 -20.424902 -146.987762 55.547066 -54.435081 90.126129
[L_front_hand01_02]
16 71.020905 -0.000179 0.000030 0.000318 -0.002326 -105.568306 71.020905
17 71.020905 -0.000179 0.000030 0.000320 -0.002325 -105.659508 71.020905
[L_front_hand02_02]
16 71.020927 -0.000119 0.000060 0.000318 -0.002326 -105.568306 71.020927
17 71.020927 -0.000119 0.000060 0.000320 -0.002325 -105.659508 71.020927
[L_front_hand03_02]
16 71.020905 -0.000060 0.000060 0.000318 -0.002326 -105.568306 71.020905
17 71.020905 -0.000060 0.000060 0.000320 -0.002325 -105.659508 71.020905
[R_forearm]
16 322.776428 -0.000060 0.000030 0.201037 0.068375 -109.891632 322.776428
17 322.776428 -0.000060 0.000030 0.201026 0.068406 -109.909767 322.776428
[R_front_hand]
16 238.847015 -0.006795 2.210259 -2.635298 -10.645461 -26.312506 238.857239
17 238.847015 -0.006795 2.210259 -2.635298 -10.645461 -26.312506 238.857239
[R_weapon_bone]
16 155.664093 0.002503 -0.000030 0.003487 0.001180 -90.988930 155.664078
17 155.664093 0.002503 -0.000030 0.003487 0.001180 -90.988930 155.664078
[R_front_hand01_01]
16 87.624611 14.231146 22.918642 -147.368515 -57.499996 53.246597 91.683487
17 87.624611 14.231146 22.918642 -150.820541 -58.784569 57.311836 91.683487
[R_front_hand02_01]
16 89.356956 14.367283 -19.491137 147.772629 55.873177 55.617874 92.579636
17 89.356956 14.367283 -19.491137 151.027069 57.144753 59.518578 92.579636
[R_front_hand03_01]
16 87.286232 -22.307278 -0.143439 0.124412 -0.437303 -70.732681 90.091743
17 87.286232 -22.307278 -0.143439 0.144811 -0.432555 -73.232849 90.091743
[R_front_hand01_02]
16 71.020905 0.000060 0.000119 0.002323 -0.000334 106.381714 71.020905
17 71.020905 0.000060 0.000119 0.002323 -0.000334 106.381714 71.020905
[R_front_hand02_02]
16 71.020844 -0.000030 -0.000119 0.002323 -0.000334 106.381714 71.020836
17 71.020844 -0.000030 -0.000119 0.002323 -0.000334 106.381714 71.020836
[R_front_hand03_02]
16 71.020905 0.000000 0.000030 0.002323 -0.000334 106.381714 71.020905
17 71.020905 0.000000 0.000030 0.002323 -0.000334 106.381714 71.020905
[null_rope01_connect]
16 328.732483 0.000000 -0.000238 165.816925 -12.965960 20.743576 328.732483
17 328.732483 0.000000 -0.000238 166.528717 -14.696776 21.184809 328.732483
[Rope1_Seg01]
16 0.000000 0.000000 0.000000 -46.443279 -71.801422 163.445068 0.000000
17 0.000000 0.000000 0.000000 -55.957977 -85.250465 166.292801 0.000000
[Rope1_Seg02]
16 139.999863 -0.000179 0.000000 -4.576229 -9.582685 -1.000396 139.999863
17 139.999863 -0.000179 0.000000 -4.640752 -7.575739 -8.410071 139.999863
[Rope1_Seg03]
16 139.999924 0.000060 -0.000060 -11.097706 -17.043852 -2.430727 139.999924
17 139.999924 0.000060 -0.000060 -5.354893 -10.052816 -12.386937 139.999924
[Rope1_Seg04]
16 139.999924 -0.000060 -0.000119 -24.801292 -25.456072 1.637812 139.999924
17 139.999924 -0.000060 -0.000119 -4.737393 -11.547749 -11.415981 139.999924
[Rope1_Seg05]
16 139.999832 0.000119 -0.000060 -20.514919 -7.490314 -36.744598 139.999832
17 139.999832 0.000119 -0.000060 -2.824752 -2.608634 -24.746037 139.999832
[Rope1_Seg06]
16 139.999954 0.000119 -0.000060 -9.162510 19.770399 -46.140221 139.999954
17 139.999954 0.000119 -0.000060 3.047255 4.100173 -33.312248 139.999954
[Rope1_Seg07]
16 139.999985 0.000060 0.000000 1.885780 3.868273 -10.859177 139.999985
17 139.999985 0.000060 0.000000 6.145190 -0.312157 -14.351253 139.999985
[Rope1_Seg09]
16 121.602913 0.000119 -0.000089 -89.793175 -1.359789 0.847147 121.602913
17 121.602913 0.000119 -0.000089 -89.793175 -1.359789 0.847147 121.602913
[L_mid_hand01]
16 103.859421 1.038730 8.195221 112.678780 -49.980732 -18.276028 104.187431
17 103.859421 1.038730 8.195221 114.394852 -53.111439 -20.468830 104.187431
[L_mid_hand02]
16 105.572853 -4.139662 -10.864139 -152.571289 36.560638 -48.342640 106.211075
17 105.572853 -4.139662 -10.864139 -154.909470 38.072205 -52.197872 106.211075
[L_mid_hand03]
16 104.641464 17.579376 -3.913581 -11.926215 14.597148 53.941067 106.179977
17 104.641464 17.579376 -3.913581 -11.031654 15.280054 57.403896 106.179977
[null_rope02_connect]
16 328.732849 0.000179 -0.000119 4.091908 -5.339342 -29.786615 328.732849
17 328.732849 0.000179 -0.000119 3.664925 0.827797 -28.112997 328.732849
[Rope2_Seg01]
16 -0.000065 -0.000134 0.000000 -61.557266 35.726704 -153.448730 0.000148
17 -0.000064 -0.000130 0.000000 -52.701851 36.103569 -136.862610 0.000145
[Rope2_Seg02]
16 139.999741 -0.000060 -0.000119 -0.773579 -4.834118 3.698083 139.999756
17 139.999741 -0.000060 -0.000119 -0.306389 -1.916902 2.148700 139.999756
[Rope2_Seg03]
16 140.000107 0.000030 0.000000 -0.979137 -7.556567 5.679477 140.000107
17 140.000107 0.000030 0.000000 -0.388234 -3.010466 3.346895 140.000107
[Rope2_Seg04]
16 139.999802 0.000000 -0.000060 -1.496654 -12.232152 10.642820 139.999802
17 139.999802 0.000000 -0.000060 -0.515847 -5.614128 6.199732 139.999802
[Rope2_Seg05]
16 139.999985 -0.000060 0.000119 -0.541653 -15.765618 13.810124 139.999985
17 139.999985 -0.000060 0.000119 -0.337495 -13.929850 17.988327 139.999985
[Rope2_Seg06]
16 139.999893 -0.000030 -0.000119 -5.651736 -27.769058 9.797558 139.999893
17 139.999893 -0.000030 -0.000119 12.282187 -27.497438 35.811138 139.999893
[Rope2_Seg07]
16 139.999893 0.000060 -0.000060 -74.503204 -35.571583 7.993273 139.999893
17 139.999893 0.000060 -0.000060 96.887115 -24.256571 54.317898 139.999893
[Rope2_Seg09]
16 121.338966 0.000089 -0.000060 33.793236 -1.359788 -0.847141 121.338966
17 121.338966 0.000089 -0.000060 33.793236 -1.359788 -0.847141 121.338966
[R_mid_hand01]
16 104.680779 11.144459 -10.335981 -37.204075 31.906813 37.576267 105.778534
17 104.680779 11.144459 -10.335981 -36.871494 32.306065 38.202835 105.778534
[R_mid_hand02]
16 104.070427 2.443552 8.231699 70.367462 -42.427391 14.067811 104.424065
17 104.070427 2.443552 8.231699 70.157997 -43.050724 14.375076 104.424065
[R_mid_hand03]
16 106.028137 -11.221827 -5.996406 -169.893616 12.226658 -47.211018 106.788818
17 106.028137 -11.221827 -5.996406 -170.040359 12.343988 -47.884888 106.788818
[spine02]
16 129.756927 0.001550 0.000119 0.540722 -4.023496 -15.534620 129.756927
17 129.756927 0.001550 0.000119 0.541600 -4.023378 -15.559626 129.756927
[spine03]
16 78.614052 0.081741 -4.899002 2.006636 3.774919 18.112587 78.766586
17 78.614052 0.081741 -4.899001 2.006691 3.774891 18.114260 78.766586
[pelvis]
16 169.435242 0.051022 0.000000 6.324327 -0.612197 -3.058980 169.435257
17 169.435242 0.051022 0.000000 5.994122 -0.512174 -4.572752 169.435257
[null_rope03_connect]
16 -1.257226 -2.466202 137.391083 170.229721 17.379377 65.260109 137.418976
17 -1.257226 -2.466202 137.391083 171.490860 15.639567 67.143684 137.418976
[null_rope04_connect]
16 -1.259640 -2.480268 -137.844437 170.229721 17.379377 65.260109 137.872513
17 -1.259640 -2.480268 -137.844437 171.490860 15.639567 67.143684 137.872513
[Rope3_Seg01]
16 0.000000 0.000000 0.000000 -119.186409 13.438867 138.804245 0.000000
17 0.000000 0.000000 0.000000 -121.032623 12.662719 135.614944 0.000000
[Rope3_Seg02]
16 139.999924 -0.000119 0.000060 4.423626 -1.648986 20.631966 139.999924
17 139.999924 -0.000119 0.000060 4.602471 7.736827 34.887348 139.999924
[Rope3_Seg03]
16 139.999924 -0.000119 0.000119 -6.684497 1.437933 57.538456 139.999924
17 139.999924 -0.000119 0.000119 -11.418552 15.753169 59.684883 139.999924
[Rope3_Seg04]
16 139.999924 0.000119 0.000000 -27.620127 -1.202482 32.421429 139.999924
17 139.999924 0.000119 0.000000 -35.796501 -1.211395 16.553486 139.999924
[Rope3_Seg05]
16 139.999924 -0.000238 0.000060 -14.114620 -6.618162 5.605264 139.999924
17 139.999924 -0.000238 0.000060 -20.969267 -7.166136 2.372663 139.999924
[Rope3_Seg06]
16 139.999893 -0.000119 -0.000060 -11.497000 -10.912520 0.029975 139.999893
17 139.999893 -0.000119 -0.000060 -12.131274 -11.101800 -4.028304 139.999893
[Rope3_Seg07]
16 139.999771 0.000060 -0.000119 -9.425893 -16.935659 -3.936719 139.999771
17 139.999771 0.000060 -0.000119 -7.625482 -10.723155 -4.122007 139.999771
[Rope3_Seg08]
16 139.999985 -0.000060 0.000000 -3.948053 -11.932087 -3.342787 139.999985
17 139.999985 -0.000060 0.000000 -3.141921 -7.578394 -3.985915 139.999985
[Rope3_Seg09]
16 90.185997 -0.000179 -0.000060 89.793228 -1.359877 -0.847183 90.185997
17 90.185997 -0.000179 -0.000060 89.793228 -1.359877 -0.847183 90.185997
[R_rear_hand01]
16 103.366196 -6.073594 -10.757982 -164.972809 19.789427 -40.983841 104.101845
17 103.366196 -6.073594 -10.757982 -165.575058 20.224255 -42.745789 104.101845
[R_rear_hand02]
16 100.509819 12.039542 -7.992327 -30.544968 25.097786 38.729183 101.543350
17 100.509819 12.039542 -7.992327 -29.842968 25.960022 40.362484 101.543350
[R_rear_hand03]
16 101.539970 5.215704 5.435467 82.376854 -41.657902 8.948386 101.819031
17 101.539970 5.215704 5.435467 82.169113 -43.351929 9.256878 101.819031
[Rope4_Seg01]
16 0.000010 0.000027 -0.000107 44.770470 -69.050278 93.500069 0.000111
17 0.000010 0.000026 -0.000104 113.841370 -75.485641 25.329557 0.000107
[Rope4_Seg02]
16 139.999985 0.000060 0.000119 5.322885 -29.583979 -7.695758 139.999985
17 139.999985 0.000060 0.000119 -2.783596 -11.898810 -11.362265 139.999985
[Rope4_Seg03]
16 139.999924 0.000000 -0.000238 10.923223 -19.953674 -0.619143 139.999924
17 139.999924 0.000000 -0.000238 -5.473111 -10.612178 -10.216254 139.999924
[Rope4_Seg04]
16 139.999985 0.000000 0.000119 11.251705 -15.679646 -3.348330 139.999985
17 139.999985 0.000000 0.000119 -10.716648 -7.626492 -9.171207 139.999985
[Rope4_Seg05]
16 139.999802 -0.000060 -0.000119 38.958553 -14.241119 -3.743185 139.999802
17 139.999802 -0.000060 -0.000119 -26.195042 -1.219253 -10.740830 139.999802
[Rope4_Seg06]
16 139.999924 0.000000 0.000060 93.860542 -6.557244 3.444292 139.999924
17 139.999924 0.000000 0.000060 -19.153219 3.475830 -6.473422 139.999924
[Rope4_Seg07]
16 139.999802 0.000000 0.000000 14.171473 2.491872 3.796432 139.999802
17 139.999802 0.000000 0.000000 -9.566727 2.676575 -3.221141 139.999802
[Rope4_Seg08]
16 139.999924 0.000000 0.000119 2.428668 2.010787 1.850212 139.999924
17 139.999924 0.000000 0.000119 -6.668742 1.921212 -1.666125 139.999924
[Rope4_Seg09]
16 90.185791 0.000060 0.000060 -135.617828 2.228885 0.850567 90.185791
17 90.185791 0.000060 0.000060 -135.617828 2.228885 0.850567 90.185791
[L_rear_hand01]
16 101.696655 -8.392275 -7.654577 -24.658646 -30.887184 128.783096 102.329041
17 101.696655 -8.392275 -7.654577 -22.991795 -32.088032 125.593971 102.329041
[L_rear_hand02]
16 102.726799 -1.568258 5.773216 80.302322 53.966492 168.267426 102.900848
17 102.726799 -1.568258 5.773216 79.542931 56.888847 167.348526 102.900848
[L_rear_hand03]
16 104.552910 9.721220 -10.420293 -169.691238 -22.530384 -125.995583 105.519653
17 104.552910 9.721220 -10.420293 -170.919907 -23.031248 -122.815849 105.519653
